<svg xmlns="http://www.w3.org/2000/svg" width="49" height="46" viewBox="0 0 49 46" fill="#00b09f">
  <path id="venus-slider-1-txt" d="M1317.93,292.138a0.793,0.793,0,1,1,0,1.586A0.793,0.793,0,1,1,1317.93,292.138Zm1.64,13.483a0.793,0.793,0,1,1,0,1.586A0.793,0.793,0,1,1,1319.57,305.621Zm-20.42-6.345a0.793,0.793,0,1,1-.82.793A0.809,0.809,0,0,1,1299.15,299.276Zm13.07-4.759a0.793,0.793,0,1,1,0,1.586A0.793,0.793,0,1,1,1312.22,294.517Zm12.25,3.966a0.793,0.793,0,1,1,0,1.586A0.793,0.793,0,1,1,1324.47,298.483Zm-30.22,7.138a0.793,0.793,0,1,1-.82.793A0.809,0.809,0,0,1,1294.25,305.621Zm1.69-34.184a8.35,8.35,0,0,0-11.55,0,7.774,7.774,0,0,0,0,11.216l12.71,12.337,11.55-11.216Zm-10.39,10.095a6.2,6.2,0,0,1,0-8.974,6.681,6.681,0,0,1,9.24,0l11.55,11.217-9.24,8.973Zm43.06-17.209a8.34,8.34,0,0,0-11.55,0l-12.71,12.337,11.55,11.216,12.71-12.338A7.773,7.773,0,0,0,1328.61,264.323Zm-1.16,10.094-11.55,11.217-9.24-8.974,11.55-11.216a6.673,6.673,0,0,1,9.24,0A6.2,6.2,0,0,1,1327.45,274.417Zm-12.78,15.341a3.271,3.271,0,1,0-3.27,3.173A3.228,3.228,0,0,0,1314.67,289.758Zm-4.9,0a1.631,1.631,0,1,1,1.63,1.587A1.61,1.61,0,0,1,1309.77,289.758Zm-4.09,3.173a3.174,3.174,0,1,0,3.27,3.172A3.219,3.219,0,0,0,1305.68,292.931Zm0,4.758a1.587,1.587,0,1,1,1.64-1.586A1.609,1.609,0,0,1,1305.68,297.689Zm8.17,0a3.174,3.174,0,1,0,3.27,3.173A3.228,3.228,0,0,0,1313.85,297.689Zm0,4.759a1.587,1.587,0,1,1,1.63-1.586A1.609,1.609,0,0,1,1313.85,302.448Zm-8.17-.793a3.174,3.174,0,1,0,3.27,3.172A3.219,3.219,0,0,0,1305.68,301.655Zm0,4.759a1.587,1.587,0,1,1,1.64-1.587A1.61,1.61,0,0,1,1305.68,306.414Z" transform="translate(-1282 -262)"/>
</svg>