<svg xmlns="http://www.w3.org/2000/svg" width="50" height="49" viewBox="0 0 50 49" fill="#00b09f">
  <path id="venus-slider-3-txt" d="M1302.09,281.913a1.29,1.29,0,1,1-1.29,1.289A1.291,1.291,0,0,1,1302.09,281.913Zm17.66,27.509a5.158,5.158,0,1,0-5.17-5.158A5.163,5.163,0,0,0,1319.75,309.422Zm0-8.6a3.439,3.439,0,1,1-3.44,3.438A3.449,3.449,0,0,1,1319.75,300.826Zm9.48-21.492a5.158,5.158,0,1,0,5.17,5.158A5.17,5.17,0,0,0,1329.23,279.334Zm0,8.6a3.439,3.439,0,1,1,3.45-3.439A3.442,3.442,0,0,1,1329.23,287.931Zm5.78-8.6a7.762,7.762,0,0,0-11.45-.116,7.626,7.626,0,0,0-2.07,4.859l-12.66-3-4.72-1.178a3.5,3.5,0,0,0-.47-0.9l-0.26-.307V266.424a3.444,3.444,0,0,0-3.4-3.424h-0.06a3.446,3.446,0,0,0-3.43,3.438V270.4l-3.23-3.89a3.447,3.447,0,1,0-5.6,4.02l6.34,8.362,1.86,4.943a4.753,4.753,0,0,0,3.07,2.864l4.19,1.254,11.01,10.982a7.689,7.689,0,0,0-2.07,6.344,7.8,7.8,0,0,0,6.79,6.669,8,8,0,0,0,.88.05,7.736,7.736,0,0,0,.37-15.465c-1.27-1.178-7.51-7.05-11.12-10.454l14.37,3.446A7.744,7.744,0,1,0,1335.01,279.334Zm-36.8-12.91a1.733,1.733,0,0,1,1.74-1.7h0.03a1.726,1.726,0,0,1,1.68,1.719v10.187l-3.45-4.15v-6.051Zm37.01,18.762a6.025,6.025,0,0,1-10.71,3.038l-0.19-.232-17.45-4.184-0.81,1.891,0.44,0.412c12.89,12.136,12.89,12.136,13.25,12.136a6.027,6.027,0,1,1-4.16,1.661,1.313,1.313,0,0,0,.42-0.962,1.292,1.292,0,0,0-.38-0.947l-11.6-11.566-4.6-1.379a3.027,3.027,0,0,1-1.96-1.82l-1.9-5.062-6.52-8.659a1.718,1.718,0,0,1,1.4-2.718,1.868,1.868,0,0,1,.29.024,1.756,1.756,0,0,1,1.15.741l4.6,5.532v0l5.79,6.972a1.738,1.738,0,0,1,.28.691l0.09,0.552,5.77,1.44,13.58,3.218a0.99,0.99,0,0,0,.87-0.2,1,1,0,0,0,.35-0.834,6.02,6.02,0,0,1,6.01-6.457,6.056,6.056,0,0,1,4.5,2.007A5.936,5.936,0,0,1,1335.22,285.186Z" transform="translate(-1287 -263)"/>
</svg>