<svg id="venus-logo" xmlns="http://www.w3.org/2000/svg" width="421.17" height="200" viewBox="0 0 421.17 150">
  <defs>
    <linearGradient id="gradient" x1="9.24" y1="196.17" x2="128.76" y2="127.16" gradientTransform="matrix(1, 0, 0, -1, 0, 230.66)" gradientUnits="userSpaceOnUse">
      <stop offset="0" stop-color="#a9feff"/>
      <stop offset="1" stop-color="#00b09f"/>
    </linearGradient>
  </defs>
  <title>venus-medic-logo</title>
  <g id="venus">
    <path id="v" d="M200.33,44.25h9.54l-14.3,44.42H181.11l-14.25-44.4h10.23l11.52,37Z" transform="translate(0 -20.67)" fill="#333"/>
    <path id="e" d="M235.5,80.85h21.83v7.82H225.84V44.25h31.23V52H235.5V62H254v7.8H235.5Z" transform="translate(0 -20.67)" fill="#333"/>
    <path id="n" d="M304.62,44.25h9.21V88.67H304L284.7,58.92V88.67h-9.21V44.25h9.84L304.62,74Z" transform="translate(0 -20.67)" fill="#333"/>
    <path id="u" d="M338.14,84.55q-4.55-4.67-4.54-14.33v-26h9.81v27q0,5.22,2.19,7.62t6.75,2.4q4.56,0,6.75-2.4t2.23-7.62V44.25H371v26q0,9.66-4.5,14.33t-14.13,4.64Q342.69,89.22,338.14,84.55Z" transform="translate(0 -20.67)" fill="#333"/>
    <path id="s" d="M395.33,88.72a36.82,36.82,0,0,1-6-1.4V79.41a43.58,43.58,0,0,0,12.39,2q4.29,0,6.21-1.3a4.9,4.9,0,0,0,1.4-6.27,4.79,4.79,0,0,0-2-1.65,20.23,20.23,0,0,0-3.87-1.37l-3.33-.87q-5.94-1.47-8.88-4.6a11.47,11.47,0,0,1-2.92-8.17,11.76,11.76,0,0,1,4.68-10q4.7-3.51,13.85-3.51a44.71,44.71,0,0,1,5.63.34,35.69,35.69,0,0,1,4.91,1v8a29.89,29.89,0,0,0-4.76-1,38.44,38.44,0,0,0-5.23-.36q-5,0-7.14,1.33a4.22,4.22,0,0,0-2.17,3.79,4.5,4.5,0,0,0,.51,2.25,4.21,4.21,0,0,0,1.72,1.56,16.46,16.46,0,0,0,3.41,1.26l3.36.84q6.48,1.62,9.52,4.74a11.26,11.26,0,0,1,3,8.22,12.58,12.58,0,0,1-2.13,7.32,13.32,13.32,0,0,1-6.13,4.72,25.32,25.32,0,0,1-9.58,1.64A42.53,42.53,0,0,1,395.33,88.72Z" transform="translate(0 -20.67)" fill="#333"/>
  </g>
  <g id="medical-center">
    <path id="m" d="M190.68,111.55h5.65v25.9H192V117.88l-7.1,15.87h-3.92l-7.11-15.5v19.2h-4.37v-25.9h5.65L183,129Z" transform="translate(0 -20.67)" fill="#777"/>
    <path id="e" d="M217.79,129.28H206a6.7,6.7,0,0,0,.7,2.95,3.52,3.52,0,0,0,1.89,1.58,9.76,9.76,0,0,0,3.41.49,20.23,20.23,0,0,0,4.79-.67v3.48a22.49,22.49,0,0,1-5.43.68,13.21,13.21,0,0,1-5.61-1,6.81,6.81,0,0,1-3.28-3.21,12.73,12.73,0,0,1-1.08-5.66,13.09,13.09,0,0,1,1-5.41,7.12,7.12,0,0,1,2.89-3.32,8.86,8.86,0,0,1,4.57-1.11,7.18,7.18,0,0,1,5.93,2.51q2,2.51,2,7.46Zm-10.81-7a7.3,7.3,0,0,0-1,4.22h7.54a7.59,7.59,0,0,0-1-4.22,3.17,3.17,0,0,0-2.74-1.26,3.33,3.33,0,0,0-2.81,1.29Z" transform="translate(0 -20.67)" fill="#777"/>
    <path id="d" d="M225.13,136.8a6.81,6.81,0,0,1-2.8-3.13,12.44,12.44,0,0,1-1-5.4q0-5,2.58-7.65t7.53-2.61a18.69,18.69,0,0,1,2.56.19v-9h4.58v28.28h-3.85l-.28-2h-.25a6.06,6.06,0,0,1-2.17,1.71,6.75,6.75,0,0,1-3,.63A7.91,7.91,0,0,1,225.13,136.8Zm7.25-3.23A4.11,4.11,0,0,0,234,132.3V121.86a11.71,11.71,0,0,0-2.56-.26,5.31,5.31,0,0,0-4.14,1.5q-1.36,1.5-1.36,4.84t1.14,4.7a4,4,0,0,0,3.24,1.37A5,5,0,0,0,232.38,133.57Z" transform="translate(0 -20.67)" fill="#777"/>
    <path id="i" d="M244.33,114.45a2.72,2.72,0,0,1,0-3.71,4,4,0,0,1,4.36,0,2.72,2.72,0,0,1,0,3.71A4,4,0,0,1,244.33,114.45Zm-.13,23V118.36h4.6v19.09Z" transform="translate(0 -20.67)" fill="#777"/>
    <path id="c" d="M255.89,135.36q-2.4-2.44-2.4-7.43t2.55-7.45q2.55-2.42,7.47-2.42a18,18,0,0,1,4.15.46v3.67a17.25,17.25,0,0,0-3.55-.4,7.85,7.85,0,0,0-3.34.61,3.94,3.94,0,0,0-1.92,2,8.34,8.34,0,0,0-.63,3.53q0,3.31,1.32,4.75a5.23,5.23,0,0,0,4,1.44,11,11,0,0,0,1.86-.17,21.8,21.8,0,0,0,2.21-.52v3.67a15.16,15.16,0,0,1-4.76.73Q258.33,137.8,255.89,135.36Z" transform="translate(0 -20.67)" fill="#777"/>
    <path id="a" d="M282.82,118.79a5.1,5.1,0,0,1,2.69,2.39,9.71,9.71,0,0,1,.88,4.52v11.76h-3.8l-.32-2H282a5.4,5.4,0,0,1-2.21,1.72,7.49,7.49,0,0,1-3,.59,7.33,7.33,0,0,1-3.24-.66,4.82,4.82,0,0,1-2.09-1.88,5.47,5.47,0,0,1-.73-2.86,5,5,0,0,1,1.82-4.11,10.63,10.63,0,0,1,5.76-1.77l3.57-.33v-.75a4.73,4.73,0,0,0-.46-2.28,2.57,2.57,0,0,0-1.45-1.18,8.15,8.15,0,0,0-2.65-.35,17.4,17.4,0,0,0-2.54.2,16.52,16.52,0,0,0-2.62.6v-3.52a17.35,17.35,0,0,1,2.9-.61,23.27,23.27,0,0,1,3-.21A12.8,12.8,0,0,1,282.82,118.79Zm-2.62,15.36a4.59,4.59,0,0,0,1.71-1.22v-4.06l-3.13.28a4.86,4.86,0,0,0-2.63.87,2.37,2.37,0,0,0-.83,1.93,2.45,2.45,0,0,0,.74,1.92,3.17,3.17,0,0,0,2.18.67,5.22,5.22,0,0,0,2-.4Z" transform="translate(0 -20.67)" fill="#777"/>
    <path id="l" d="M291.83,137.45V109.17h4.59v28.28Z" transform="translate(0 -20.67)" fill="#777"/>
    <path id="c" d="M314.42,134.61q-3.31-3.18-3.31-10.05,0-6.68,3.39-10t9.77-3.33a23.14,23.14,0,0,1,5.56.67v3.88a20.94,20.94,0,0,0-5.23-.65,10.7,10.7,0,0,0-4.79.95,6.1,6.1,0,0,0-2.84,3,13,13,0,0,0-1,5.42,13.42,13.42,0,0,0,1,5.5,5.91,5.91,0,0,0,2.79,3,10.52,10.52,0,0,0,4.66.91,18.34,18.34,0,0,0,5.42-.86v3.88a17.66,17.66,0,0,1-2.79.65,20.21,20.21,0,0,1-3,.23Q317.73,137.78,314.42,134.61Z" transform="translate(0 -20.67)" fill="#777"/>
    <path id="e" d="M348.72,129.28H336.91a6.69,6.69,0,0,0,.7,2.95,3.53,3.53,0,0,0,1.89,1.58,9.76,9.76,0,0,0,3.41.49,20.23,20.23,0,0,0,4.79-.67v3.48a22.48,22.48,0,0,1-5.42.68,13.21,13.21,0,0,1-5.61-1,6.8,6.8,0,0,1-3.28-3.21,12.73,12.73,0,0,1-1.08-5.66,13.09,13.09,0,0,1,1-5.41,7.12,7.12,0,0,1,2.89-3.32,8.86,8.86,0,0,1,4.57-1.11,7.18,7.18,0,0,1,5.93,2.51q2,2.51,2,7.46Zm-10.82-7a7.31,7.31,0,0,0-1,4.22h7.54a7.59,7.59,0,0,0-1-4.22A3.17,3.17,0,0,0,340.7,121a3.33,3.33,0,0,0-2.79,1.29Z" transform="translate(0 -20.67)" fill="#777"/>
    <path id="n" d="M353.19,118.36H357l.32,2h.25a7.33,7.33,0,0,1,2.56-1.71,8.39,8.39,0,0,1,3.16-.59A6.26,6.26,0,0,1,368,119.8q1.72,1.74,1.71,5.5v12.14h-4.58V125.57a3.78,3.78,0,0,0-.8-2.72,3.16,3.16,0,0,0-2.34-.81,5.72,5.72,0,0,0-2.28.48,4.69,4.69,0,0,0-1.87,1.44v13.49h-4.58Z" transform="translate(0 -20.67)" fill="#777"/>
    <path id="t" d="M386.47,133.74v3.67a14.62,14.62,0,0,1-3.31.38q-6.79,0-6.79-6.84V122h-3.29v-3.66h3.25l.8-6.81h3.78v6.81h5.42V122H381v8.21a5.66,5.66,0,0,0,.36,2.22,2.26,2.26,0,0,0,1.09,1.18,4.46,4.46,0,0,0,1.94.36A11.69,11.69,0,0,0,386.47,133.74Z" transform="translate(0 -20.67)" fill="#777"/>
    <path id="e" d="M405.6,129.28H393.78a6.69,6.69,0,0,0,.7,2.95,3.53,3.53,0,0,0,1.89,1.58,9.76,9.76,0,0,0,3.41.49,20.23,20.23,0,0,0,4.79-.67v3.48a22.48,22.48,0,0,1-5.42.68,13.21,13.21,0,0,1-5.61-1,6.8,6.8,0,0,1-3.28-3.21,12.73,12.73,0,0,1-1.08-5.66,13.09,13.09,0,0,1,1-5.41,7.12,7.12,0,0,1,2.89-3.32,8.86,8.86,0,0,1,4.57-1.11,7.18,7.18,0,0,1,5.93,2.51q2,2.51,2,7.46Zm-10.82-7a7.31,7.31,0,0,0-1,4.22h7.55a7.59,7.59,0,0,0-1-4.22,3.17,3.17,0,0,0-2.74-1.26,3.33,3.33,0,0,0-2.81,1.29Z" transform="translate(0 -20.67)" fill="#777"/>
    <path id="r" d="M410.06,118.36h3.78l.35,2.49h.25a5.4,5.4,0,0,1,2.21-2,6.69,6.69,0,0,1,3-.68,9.65,9.65,0,0,1,1.52.12v4.17a10.44,10.44,0,0,0-1.79-.12,6.83,6.83,0,0,0-2.69.56,4.82,4.82,0,0,0-2.07,1.59v13H410Z" transform="translate(0 -20.67)" fill="#777"/>
  </g>
  <circle id="back-elipse" cx="69" cy="69" r="69" fill="url(#gradient)"/>
  <path id="medic-logo" d="M106.72,101.87,93.46,93.56a2,2,0,0,1,0-3.34l13.26-8.31a4.85,4.85,0,0,0,1.54-6.68h0l-7.07-11.27a4.84,4.84,0,0,0-6.67-1.54l-.06,0L83.88,69.24a2,2,0,0,1-2,.07,1.93,1.93,0,0,1-1-1.72V52.77A4.85,4.85,0,0,0,76,47.92H62.66a4.85,4.85,0,0,0-4.84,4.85v14.9a2,2,0,0,1-3,1.67L44.17,62.67a4.86,4.86,0,0,0-6.69,1.53L30.4,75.5a4.86,4.86,0,0,0,1.53,6.69l12.8,8a2,2,0,0,1,0,3.34l-12.79,8a4.86,4.86,0,0,0-1.53,6.69l7.08,11.3A4.86,4.86,0,0,0,44.18,121l10.62-6.66a2,2,0,0,1,3,1.67v10.46a4.85,4.85,0,0,0,4.84,4.84H76a4.85,4.85,0,0,0,4.85-4.84V116.11a2,2,0,0,1,3-1.65l10.57,6.85a4.85,4.85,0,0,0,6.71-1.43l0-.07,7.05-11.26a4.85,4.85,0,0,0-1.54-6.68Z" transform="translate(0 -20.67)" fill="#fff"/>
</svg>