<svg width="70" height="40" viewBox="0 0 70 40" fill="none" xmlns="http://www.w3.org/2000/svg">
<path d="M34 19.5C34 13.1487 28.8513 8 22.5 8C16.1487 8 11 13.1487 11 19.5C11 25.8513 16.1487 31 22.5 31C28.8513 31 34 25.8513 34 19.5Z" fill="#F1F1F1"/>
<path d="M26.4805 14H28.3203L24.2773 18.6703L29 25H25.2969L22.4023 21.1476L19.0742 25H17.2344L21.5234 20.0097L17 14H20.7969L23.4102 17.5205L26.4805 14ZM25.8359 23.9095H26.8555L20.2578 15.055H19.168L25.8359 23.9095Z" fill="#C4C4C4"/>
<path d="M59 19.5C59 13.1487 53.8513 8 47.5 8C41.1487 8 36 13.1487 36 19.5C36 25.8513 41.1487 31 47.5 31C53.8513 31 59 25.8513 59 19.5Z" fill="#2A2A2A"/>
<path d="M51.4805 14H53.3203L49.2773 18.6703L54 25H50.2969L47.4023 21.1476L44.0742 25H42.2344L46.5234 20.0097L42 14H45.7969L48.4102 17.5205L51.4805 14ZM50.8359 23.9095H51.8555L45.2578 15.055H44.168L50.8359 23.9095Z" fill="white"/>
<path d="M57.5001 34C57.5001 34 57.4492 37.5 53.5001 37.5C50.2246 37.5 46.8791 32.3404 45.8331 30.5802C45.629 30.2367 45.6937 29.8064 45.9762 29.5239C46.2808 29.2193 46.7581 29.172 47.1166 29.411L49.5001 31V23.5C49.5001 22 51.5001 22 51.5001 23.5V25.5C51.5001 24 53.5001 24 53.5001 25.5V26.5C53.5001 25 55.5001 25 55.5001 26.5V27.5C55.5001 26 57.5001 26 57.5001 27.5V34Z" fill="white"/>
<path d="M51.5001 29.5V25.5M51.5001 25.5C51.5001 25.5 51.5001 24.9999 51.5001 23.5C51.5001 22 49.5001 22 49.5001 23.5C49.5001 24.9999 49.5001 31 49.5001 31L47.1166 29.411C46.7581 29.172 46.2808 29.2193 45.9762 29.5239C45.6937 29.8064 45.629 30.2367 45.8331 30.5802C46.8791 32.3404 50.2246 37.5 53.5001 37.5C57.4492 37.5 57.5001 34 57.5001 34C57.5001 34 57.5001 27.6731 57.5001 27.5C57.5001 26 55.5001 26 55.5001 27.5M51.5001 25.5C51.5001 24 53.5001 24 53.5001 25.5C53.5001 25.6731 53.5001 26.5 53.5001 26.5M55.5001 27.5C55.5001 27.5 55.5001 26.6731 55.5001 26.5C55.5001 25 53.5001 25 53.5001 26.5M55.5001 27.5V29.5M53.5001 26.5V29.5" stroke="#545454" stroke-linecap="round" stroke-linejoin="round"/>
</svg>
