<svg width="70" height="40" viewBox="0 0 70 40" fill="none" xmlns="http://www.w3.org/2000/svg">
<path d="M27.4307 12H30.0371L24.3096 18.7931L31 28H25.7539L21.6533 22.3966L16.9385 28H14.332L20.4082 20.7414L14 12H19.3789L23.0811 17.1207L27.4307 12ZM26.5176 26.4138H27.9619L18.6152 13.5345H17.0713L26.5176 26.4138Z" fill="#C4C4C4"/>
<path d="M52.4307 12H55.0371L49.3096 18.7931L56 28H50.7539L46.6533 22.3966L41.9385 28H39.332L45.4082 20.7414L39 12H44.3789L48.0811 17.1207L52.4307 12ZM51.5176 26.4138H52.9619L43.6152 13.5345H42.0713L51.5176 26.4138Z" fill="#C4C4C4" fill-opacity="0.5"/>
<path d="M57.5001 34C57.5001 34 57.4492 37.5 53.5001 37.5C50.2246 37.5 46.8791 32.3404 45.8331 30.5802C45.629 30.2367 45.6937 29.8064 45.9762 29.5239C46.2808 29.2193 46.7581 29.172 47.1166 29.411L49.5001 31V23.5C49.5001 22 51.5001 22 51.5001 23.5V25.5C51.5001 24 53.5001 24 53.5001 25.5V26.5C53.5001 25 55.5001 25 55.5001 26.5V27.5C55.5001 26 57.5001 26 57.5001 27.5V34Z" fill="white"/>
<path d="M51.5001 29.5V25.5M51.5001 25.5C51.5001 25.5 51.5001 24.9999 51.5001 23.5C51.5001 22 49.5001 22 49.5001 23.5C49.5001 24.9999 49.5001 31 49.5001 31L47.1166 29.411C46.7581 29.172 46.2808 29.2193 45.9762 29.5239C45.6937 29.8064 45.629 30.2367 45.8331 30.5802C46.8791 32.3404 50.2246 37.5 53.5001 37.5C57.4492 37.5 57.5001 34 57.5001 34C57.5001 34 57.5001 27.6731 57.5001 27.5C57.5001 26 55.5001 26 55.5001 27.5M51.5001 25.5C51.5001 24 53.5001 24 53.5001 25.5C53.5001 25.6731 53.5001 26.5 53.5001 26.5M55.5001 27.5C55.5001 27.5 55.5001 26.6731 55.5001 26.5C55.5001 25 53.5001 25 53.5001 26.5M55.5001 27.5V29.5M53.5001 26.5V29.5" stroke="#545454" stroke-linecap="round" stroke-linejoin="round"/>
</svg>
