<svg xmlns="http://www.w3.org/2000/svg" width="15" height="15" viewBox="0 0 30 30" fill="#00b09f">
  <path id="venus-phone" d="M1346.11,4614.99a12.821,12.821,0,0,1-4.42-.94,36.721,36.721,0,0,1-18.76-18.75c-1.25-3.3-1.25-6.02-.01-7.26,0.18-.18.36-0.37,0.55-0.56,1.13-1.2,2.41-2.54,4.11-2.48,1.17,0.05,2.3.78,3.47,2.22,3.43,4.26,1.88,5.78.09,7.55l-0.32.31c-0.29.29-.84,1.65,4.3,6.79a27.979,27.979,0,0,0,4.26,3.65c0.72,0.47,2.01,1.17,2.54.65l0.32-.32c1.75-1.79,3.28-3.33,7.54.1,1.44,1.16,2.17,2.29,2.22,3.46,0.07,1.69-1.29,2.98-2.48,4.11-0.2.19-.39,0.37-0.57,0.55A3.943,3.943,0,0,1,1346.11,4614.99Zm-18.65-28.98c-1.21,0-2.29,1.15-3.26,2.16l-0.56.59c-0.93.92-.84,3.35,0.23,6.18a35.7,35.7,0,0,0,18.18,18.17c2.84,1.07,5.27,1.16,6.19.24,0.19-.18.38-0.37,0.59-0.56,1.03-.99,2.21-2.1,2.16-3.34a4.113,4.113,0,0,0-1.84-2.72c-3.55-2.86-4.55-1.85-6.19-.18l-0.33.33c-0.79.79-2.06,0.61-3.8-.52a29.422,29.422,0,0,1-4.42-3.78c-4.27-4.27-5.64-6.88-4.3-8.22l0.32-.32c1.68-1.64,2.69-2.64-.17-6.19a4.134,4.134,0,0,0-2.72-1.84h-0.08Z" transform="translate(-1322 -4585)"/>
</svg>
