<svg xmlns="http://www.w3.org/2000/svg" width="35" height="37" viewBox="0 0 35 37" fill="#fff">
  <path id="vens-tooth" d="M1329.38,1888.98a9.842,9.842,0,0,0-4.6-5.44,12.524,12.524,0,0,0-10.94-.53l-0.13.05a1.539,1.539,0,0,1-.19.08c-0.32.1-.57,0.2-0.76,0.27a1.877,1.877,0,0,1-1.67-.06c-2.95-.83-6.72-1.67-9.6-0.69-3.91,1.33-7.38,5.72-6.3,12.54,0.12,0.81.25,1.62,0.37,2.44,0.89,5.89,1.82,11.98,4.2,17.48l0.08,0.19c0.59,1.37,1.58,3.68,3.3,3.68h0.14l0.12-.06a5.009,5.009,0,0,0,2.6-3.15c0.29-.71.55-1.44,0.8-2.14a19.619,19.619,0,0,1,2.31-4.97c0.82-1.15,3.02-3.64,5.84-2.03,1.87,1.07,2.46,3.24,3.03,5.33,0.17,0.6.33,1.21,0.53,1.79,0.83,2.44,1.9,4.95,3.59,5.11,0.88,0.09,1.72-.49,2.45-1.71a24.056,24.056,0,0,0,2.46-7.16l0.2-.85c0.22-.93.46-1.9,0.71-2.88C1329.31,1900.72,1330.89,1894.44,1329.38,1888.98Zm-2.79,16.98c-0.25.99-.49,1.97-0.71,2.91l-0.2.85a22.942,22.942,0,0,1-2.32,6.79,1.814,1.814,0,0,1-1.12,1.07c-0.31-.04-1.17-0.51-2.43-4.22-0.19-.54-0.34-1.11-0.51-1.72-0.61-2.24-1.3-4.77-3.66-6.12-2.6-1.48-5.53-.56-7.65,2.41a20.765,20.765,0,0,0-2.48,5.28c-0.24.7-.5,1.41-0.78,2.1a3.99,3.99,0,0,1-1.71,2.36c-0.77-.19-1.6-2.11-1.92-2.86l-0.08-.2c-2.32-5.34-3.23-11.35-4.11-17.16-0.12-.82-0.25-1.64-0.38-2.45-0.68-4.38.72-9.51,5.41-11.11a7.963,7.963,0,0,1,2.54-.36,23.891,23.891,0,0,1,6.15,1.05c4.38,2.39,4.38,3.42,4.36,7.68v0.86a0.685,0.685,0,0,0,1.37,0v-0.86c0.01-3.73.01-5.49-3.11-7.63h0c0.19-.07.42-0.16,0.71-0.26,0.1-.03.2-0.07,0.3-0.11l0.1-.04a11.063,11.063,0,0,1,9.68.42,8.588,8.588,0,0,1,4.02,4.67C1329.48,1894.45,1327.95,1900.57,1326.59,1905.96Zm-19.1-16.76h-1.08l-1.65-1.57v-1.04a0.681,0.681,0,0,0-1.36,0v1.04l-1.65,1.57h-1.08a0.67,0.67,0,0,0-.68.66,0.662,0.662,0,0,0,.68.65h1.08l1.65,1.58v1.03a0.68,0.68,0,0,0,1.36,0v-1.03l1.65-1.58h1.08a0.662,0.662,0,0,0,.68-0.65A0.67,0.67,0,0,0,1307.49,1889.2Zm-3.41,1.69-1.08-1.03,1.08-1.04,1.08,1.04Zm21.14,10.07h-1.08l-1.65-1.58v-1.03a0.681,0.681,0,0,0-1.36,0v1.03l-1.65,1.58h-1.08a0.655,0.655,0,1,0,0,1.31h1.08l1.65,1.58v1.03a0.681,0.681,0,0,0,1.36,0v-1.03l1.65-1.58h1.08A0.655,0.655,0,1,0,1325.22,1900.96Zm-3.41,1.69-1.08-1.04,1.08-1.03,1.08,1.03Z" transform="translate(-1295 -1882)"/>
</svg>