<svg xmlns="http://www.w3.org/2000/svg" width="31" height="40" viewBox="0 0 31 40" fill="#00b09f">
  <path id="venus-map-marker" d="M1337.5,4480a15.341,15.341,0,0,0-15.5,15.16c0,8.14,14.3,23.92,14.91,24.58a0.8,0.8,0,0,0,1.12.06l0.06-.06c0.61-.67,14.91-16.44,14.91-24.58A15.354,15.354,0,0,0,1337.5,4480Zm0,38.03c-2.73-3.12-13.9-16.21-13.9-22.88a13.909,13.909,0,0,1,27.81,0C1351.41,4501.82,1340.23,4514.93,1337.5,4518.03Zm0.28-30.43a8.217,8.217,0,1,0,8.41,8.21A8.309,8.309,0,0,0,1337.78,4487.6Zm0,14.87a6.652,6.652,0,1,1,6.81-6.65A6.719,6.719,0,0,1,1337.78,4502.47Z" transform="translate(-1322 -4480)"/>
</svg>