<svg xmlns="http://www.w3.org/2000/svg" width="32.4" height="38.38" viewBox="0 0 32.4 38.38" fill="#fff">
  <path id="venus-medic-book" d="M1648.06,1899.34h5.19v-2.65h2.59v-5.3h-2.59v-2.65h-5.19v2.65h-2.59v5.3h2.59v2.65Zm-1.29-3.98v-2.64h2.59v-2.65h2.59v2.65h2.59v2.64h-2.59v2.65h-2.59v-2.65h-2.59Zm0.65,9.27a0.665,0.665,0,0,0,0,1.33h6.48a0.665,0.665,0,0,0,0-1.33h-6.48Zm9.07,2.65h-11.67a0.665,0.665,0,0,0,0,1.33h11.67A0.665,0.665,0,0,0,1656.49,1907.28Zm0,2.65h-11.67a0.66,0.66,0,0,0,0,1.32h11.67A0.66,0.66,0,0,0,1656.49,1909.93Zm8.42-29.13H1636.4v38.4h28.51v-3.97h3.89V1880.8h-3.89Zm-1.29,37.07H1637.7v-35.75h25.92v35.75Zm3.88-3.97h-2.59v-5.29h2.59v5.29Zm0-6.62h-2.59v-5.29h2.59v5.29Zm0-6.62h-2.59v-5.3h2.59v5.3Zm0-6.62h-2.59v-5.3h2.59v5.3Zm-2.59-6.62v-5.3h2.59v5.3h-2.59Z" transform="translate(-1636.41 -1880.81)"/>
</svg>