<svg xmlns="http://www.w3.org/2000/svg" width="82" height="80" viewBox="0 0 82 80" fill="#00b09f">
  <path id="venus-infobox-pills" d="M1491.13,3292.41a1.38,1.38,0,1,1-1.36,1.38A1.374,1.374,0,0,1,1491.13,3292.41Zm2.74,23.45a1.38,1.38,0,1,1-1.37,1.38A1.372,1.372,0,0,1,1493.87,3315.86Zm-34.17-11.03a1.38,1.38,0,1,1-1.37,1.38A1.374,1.374,0,0,1,1459.7,3304.83Zm21.87-8.28a1.38,1.38,0,1,1-1.37,1.38A1.372,1.372,0,0,1,1481.57,3296.55Zm20.5,6.9a1.38,1.38,0,1,1-1.37,1.38A1.366,1.366,0,0,1,1502.07,3303.45Zm-50.57,12.41a1.38,1.38,0,1,1-1.37,1.38A1.381,1.381,0,0,1,1451.5,3315.86Zm2.83-59.45a13.593,13.593,0,0,0-19.33,0,13.9,13.9,0,0,0,0,19.51l21.26,21.45,19.33-19.5Zm-17.4,17.56a11.118,11.118,0,0,1,0-15.61,10.9,10.9,0,0,1,15.47,0l19.33,19.51-15.47,15.6Zm72.07-29.93a13.581,13.581,0,0,0-19.33,0l-21.26,21.46,19.33,19.5,21.26-21.46A13.883,13.883,0,0,0,1509,3244.04Zm-1.94,17.55-19.32,19.51-15.47-15.6,19.33-19.51a10.865,10.865,0,0,1,15.46,0A11.082,11.082,0,0,1,1507.06,3261.59Zm-21.39,26.68a5.47,5.47,0,1,0-5.47,5.52A5.5,5.5,0,0,0,1485.67,3288.27Zm-8.2,0a2.73,2.73,0,1,1,2.73,2.76A2.738,2.738,0,0,1,1477.47,3288.27Zm-6.84,5.52a5.52,5.52,0,1,0,5.47,5.52A5.5,5.5,0,0,0,1470.63,3293.79Zm0,8.28a2.76,2.76,0,1,1,2.74-2.76A2.746,2.746,0,0,1,1470.63,3302.07Zm13.67,0a5.515,5.515,0,1,0,5.47,5.52A5.495,5.495,0,0,0,1484.3,3302.07Zm0,8.27a2.755,2.755,0,1,1,2.73-2.75A2.738,2.738,0,0,1,1484.3,3310.34Zm-13.67-1.38a5.52,5.52,0,1,0,5.47,5.52A5.5,5.5,0,0,0,1470.63,3308.96Zm0,8.28a2.76,2.76,0,1,1,2.74-2.76A2.746,2.746,0,0,1,1470.63,3317.24Z" transform="translate(-1431 -3240)"/>
</svg>