<svg xmlns="http://www.w3.org/2000/svg" width="80" height="80" viewBox="0 0 80 80" fill="#00b09f">
  <path id="venus-our-team-icon-1" d="M5496.67,2042.67v-21.34h2.66v-8h-2.66V2002a2.006,2.006,0,0,0-2-2h-17.34a2.006,2.006,0,0,0-2,2v11.33h-2.66V2002a2.006,2.006,0,0,0-2-2h-17.34a2.006,2.006,0,0,0-2,2v11.33h-2.66V2002a2.006,2.006,0,0,0-2-2h-17.34a2.006,2.006,0,0,0-2,2v11.33h-2.66v8h2.66v21.34H5422V2080h80v-37.33h-5.33ZM5478,2061.33V2056a1.335,1.335,0,0,0,0-2.67V2048a1.335,1.335,0,0,0,0-2.67V2040a1.335,1.335,0,0,0,0-2.67V2032a1.329,1.329,0,0,0,1.33-1.33h5.34a1.33,1.33,0,0,0,2.66,0h5.34A1.329,1.329,0,0,0,5494,2032v5.33a1.335,1.335,0,0,0,0,2.67v5.33a1.335,1.335,0,0,0,0,2.67v5.33a1.335,1.335,0,0,0,0,2.67v5.33a1.332,1.332,0,0,0-1.33,1.34,1.316,1.316,0,0,0,.9,1.24,8,8,0,0,1-15.14,0,1.316,1.316,0,0,0,.9-1.24A1.332,1.332,0,0,0,5478,2061.33Zm16-33.33h-16v-6.67h16V2028Zm-2.67-16.67a2.006,2.006,0,0,1,2-2,1.953,1.953,0,0,1,.67.12v3.76a1.953,1.953,0,0,1-.67.12A2,2,0,0,1,5491.33,2011.33Zm-2.89-8.66a4.009,4.009,0,0,1-7.55,0h7.55Zm-10.31,0a6.671,6.671,0,0,0,13.07,0h2.8v4.05a4.913,4.913,0,0,0-.67-0.05,4.645,4.645,0,0,0-4.2,6.66h-1.86a5.967,5.967,0,0,0-9.27-4.31v-6.35h0.13Zm6.47,10.66h-6.53A3.334,3.334,0,0,1,5484.6,2013.33Zm-9.27,2.67h21.34v2.67h-21.34V2016Zm0,5.33v21.34h-2.66v-21.34h2.66ZM5470,2028h-16v-6.67h16V2028Zm-16,33.33V2056a1.335,1.335,0,0,0,0-2.67V2048a1.335,1.335,0,0,0,0-2.67V2040a1.335,1.335,0,0,0,0-2.67V2032a1.329,1.329,0,0,0,1.33-1.33h5.34a1.33,1.33,0,0,0,2.66,0h5.34A1.329,1.329,0,0,0,5470,2032v5.33a1.335,1.335,0,0,0,0,2.67v5.33a1.335,1.335,0,0,0,0,2.67v5.33a1.335,1.335,0,0,0,0,2.67v5.33a1.332,1.332,0,0,0-1.33,1.34,1.316,1.316,0,0,0,.9,1.24,8,8,0,0,1-15.14,0,1.316,1.316,0,0,0,.9-1.24A1.332,1.332,0,0,0,5454,2061.33Zm13.33-50a2.006,2.006,0,0,1,2-2,1.953,1.953,0,0,1,.67.12v3.76a1.953,1.953,0,0,1-.67.12A2,2,0,0,1,5467.33,2011.33Zm-2.89-8.66a4.009,4.009,0,0,1-7.55,0h7.55Zm-10.31,0a6.671,6.671,0,0,0,13.07,0h2.8v4.05a4.913,4.913,0,0,0-.67-0.05,4.645,4.645,0,0,0-4.2,6.66h-1.86a5.967,5.967,0,0,0-9.27-4.31v-6.35h0.13Zm6.47,10.66h-6.53A3.334,3.334,0,0,1,5460.6,2013.33Zm-9.27,2.67h21.34v2.67h-21.34V2016Zm0,5.33v21.34h-2.66v-21.34h2.66Zm-21.33,40V2056a1.335,1.335,0,0,0,0-2.67V2048a1.335,1.335,0,0,0,0-2.67V2040a1.335,1.335,0,0,0,0-2.67V2032a1.329,1.329,0,0,0,1.33-1.33h5.34a1.33,1.33,0,0,0,2.66,0h5.34A1.329,1.329,0,0,0,5446,2032v5.33a1.335,1.335,0,0,0,0,2.67v5.33a1.335,1.335,0,0,0,0,2.67v5.33a1.335,1.335,0,0,0,0,2.67v5.33a1.332,1.332,0,0,0-1.33,1.34,1.316,1.316,0,0,0,.9,1.24,8,8,0,0,1-15.14,0,1.316,1.316,0,0,0,.9-1.24A1.332,1.332,0,0,0,5430,2061.33Zm13.33-50a2.006,2.006,0,0,1,2-2,1.953,1.953,0,0,1,.67.12v3.76a1.953,1.953,0,0,1-.67.12A2,2,0,0,1,5443.33,2011.33Zm-2.89-8.66a4.009,4.009,0,0,1-7.55,0h7.55Zm-10.31,0a6.671,6.671,0,0,0,13.07,0h2.8v4.05a4.913,4.913,0,0,0-.67-0.05,4.645,4.645,0,0,0-4.2,6.66h-1.86a5.967,5.967,0,0,0-9.27-4.31v-6.35h0.13Zm6.47,10.66h-6.53A3.334,3.334,0,0,1,5436.6,2013.33Zm-9.27,2.67h21.34v2.67h-21.34V2016Zm2.67,5.33h16V2028h-16v-6.67Zm69.33,56h-74.66v-32h2.66v16a10.67,10.67,0,0,0,21.34,0v-16h2.66v16a10.67,10.67,0,0,0,21.34,0v-16h2.66v16a10.67,10.67,0,0,0,21.34,0v-16h2.66v32Zm-17.33-44a1.335,1.335,0,1,1-1.33,1.34A1.332,1.332,0,0,1,5482,2033.33Zm8,0a1.335,1.335,0,1,1-1.33,1.34A1.332,1.332,0,0,1,5490,2033.33Zm-4,4a1.335,1.335,0,1,1-1.33,1.34A1.332,1.332,0,0,1,5486,2037.33Zm-4,4a1.335,1.335,0,1,1-1.33,1.34A1.332,1.332,0,0,1,5482,2041.33Zm0,8a1.335,1.335,0,1,1-1.33,1.34A1.332,1.332,0,0,1,5482,2049.33Zm4-4a1.335,1.335,0,1,1-1.33,1.34A1.332,1.332,0,0,1,5486,2045.33Zm4-4a1.335,1.335,0,1,1-1.33,1.34A1.332,1.332,0,0,1,5490,2041.33Zm0,8a1.335,1.335,0,1,1-1.33,1.34A1.332,1.332,0,0,1,5490,2049.33Zm-4,4a1.335,1.335,0,1,1-1.33,1.34A1.332,1.332,0,0,1,5486,2053.33Zm-4,4a1.335,1.335,0,1,1-1.33,1.34A1.332,1.332,0,0,1,5482,2057.33Zm4,4a1.335,1.335,0,1,1-1.33,1.34A1.332,1.332,0,0,1,5486,2061.33Zm4-4a1.335,1.335,0,1,1-1.33,1.34A1.332,1.332,0,0,1,5490,2057.33Zm-32-24a1.335,1.335,0,1,1-1.33,1.34A1.332,1.332,0,0,1,5458,2033.33Zm8,0a1.335,1.335,0,1,1-1.33,1.34A1.332,1.332,0,0,1,5466,2033.33Zm-4,4a1.335,1.335,0,1,1-1.33,1.34A1.332,1.332,0,0,1,5462,2037.33Zm-4,4a1.335,1.335,0,1,1-1.33,1.34A1.332,1.332,0,0,1,5458,2041.33Zm0,8a1.335,1.335,0,1,1-1.33,1.34A1.332,1.332,0,0,1,5458,2049.33Zm4-4a1.335,1.335,0,1,1-1.33,1.34A1.332,1.332,0,0,1,5462,2045.33Zm4-4a1.335,1.335,0,1,1-1.33,1.34A1.332,1.332,0,0,1,5466,2041.33Zm0,8a1.335,1.335,0,1,1-1.33,1.34A1.332,1.332,0,0,1,5466,2049.33Zm-4,4a1.335,1.335,0,1,1-1.33,1.34A1.332,1.332,0,0,1,5462,2053.33Zm-4,4a1.335,1.335,0,1,1-1.33,1.34A1.332,1.332,0,0,1,5458,2057.33Zm4,4a1.335,1.335,0,1,1-1.33,1.34A1.332,1.332,0,0,1,5462,2061.33Zm4-4a1.335,1.335,0,1,1-1.33,1.34A1.332,1.332,0,0,1,5466,2057.33Zm-32-24a1.335,1.335,0,1,1-1.33,1.34A1.332,1.332,0,0,1,5434,2033.33Zm8,0a1.335,1.335,0,1,1-1.33,1.34A1.332,1.332,0,0,1,5442,2033.33Zm-4,4a1.335,1.335,0,1,1-1.33,1.34A1.332,1.332,0,0,1,5438,2037.33Zm-4,4a1.335,1.335,0,1,1-1.33,1.34A1.332,1.332,0,0,1,5434,2041.33Zm0,8a1.335,1.335,0,1,1-1.33,1.34A1.332,1.332,0,0,1,5434,2049.33Zm4-4a1.335,1.335,0,1,1-1.33,1.34A1.332,1.332,0,0,1,5438,2045.33Zm4-4a1.335,1.335,0,1,1-1.33,1.34A1.332,1.332,0,0,1,5442,2041.33Zm0,8a1.335,1.335,0,1,1-1.33,1.34A1.332,1.332,0,0,1,5442,2049.33Zm-4,4a1.335,1.335,0,1,1-1.33,1.34A1.332,1.332,0,0,1,5438,2053.33Zm-4,4a1.335,1.335,0,1,1-1.33,1.34A1.332,1.332,0,0,1,5434,2057.33Zm4,4a1.335,1.335,0,1,1-1.33,1.34A1.332,1.332,0,0,1,5438,2061.33Zm4-4a1.335,1.335,0,1,1-1.33,1.34A1.332,1.332,0,0,1,5442,2057.33Z" transform="translate(-5422 -2000)"/>
</svg>