<svg xmlns="http://www.w3.org/2000/svg" width="60" height="79" viewBox="0 0 60 79" fill="#00b09f">
  <path id="venus-our-team-icon-2" d="M5743.74,2024.36a5.87,5.87,0,1,0,5.87-5.93A5.9,5.9,0,0,0,5743.74,2024.36Zm5.87-3.29a3.29,3.29,0,1,1-3.26,3.29A3.273,3.273,0,0,1,5749.61,2021.07Zm0,14.48a5.925,5.925,0,1,0,5.87,5.92A5.9,5.9,0,0,0,5749.61,2035.55Zm0,9.22a3.3,3.3,0,1,1,3.26-3.3A3.282,3.282,0,0,1,5749.61,2044.77Zm0,7.9a5.925,5.925,0,1,0,5.87,5.92A5.9,5.9,0,0,0,5749.61,2052.67Zm0,9.21a3.29,3.29,0,1,1,3.26-3.29A3.273,3.273,0,0,1,5749.61,2061.88Zm9.78-38.18h19.57a1.315,1.315,0,0,0,0-2.63h-19.57A1.315,1.315,0,0,0,5759.39,2023.7Zm0,5.27h19.57a1.32,1.32,0,0,0,0-2.64h-19.57A1.32,1.32,0,0,0,5759.39,2028.97Zm0,11.85h19.57a1.32,1.32,0,0,0,0-2.64h-19.57A1.32,1.32,0,0,0,5759.39,2040.82Zm0,5.26h19.57a1.315,1.315,0,0,0,0-2.63h-19.57A1.315,1.315,0,0,0,5759.39,2046.08Zm0,11.85h19.57a1.315,1.315,0,0,0,0-2.63h-19.57A1.315,1.315,0,0,0,5759.39,2057.93Zm0,5.27h19.57a1.315,1.315,0,0,0,0-2.63h-19.57A1.315,1.315,0,0,0,5759.39,2063.2Zm31.31-59.25h-11.74v-2.63a1.317,1.317,0,0,0-1.31-1.32h-30a1.308,1.308,0,0,0-1.3,1.32v2.63H5733.3a1.308,1.308,0,0,0-1.3,1.32v72.41a1.308,1.308,0,0,0,1.3,1.32h57.4a1.308,1.308,0,0,0,1.3-1.32v-72.41A1.308,1.308,0,0,0,5790.7,2003.95Zm-43.05,10.53h30a1.314,1.314,0,0,0,1.31-1.31v-1.32h5.21v59.25h-44.34v-59.25h6.52v1.32A1.306,1.306,0,0,0,5747.65,2014.48Zm1.31-11.85h27.39v9.22h-27.39v-9.22Zm40.43,73.74h-54.78v-69.79h11.74v2.64h-7.83a1.3,1.3,0,0,0-1.3,1.31v61.89a1.306,1.306,0,0,0,1.3,1.31h46.96a1.306,1.306,0,0,0,1.3-1.31v-61.89a1.3,1.3,0,0,0-1.3-1.31h-6.52v-2.64h10.43v69.79Zm-36.52-68.47h19.56a1.315,1.315,0,0,0,0-2.63h-19.56A1.315,1.315,0,0,0,5752.87,2007.9Z" transform="translate(-5732 -2000)"/>
</svg>