<svg xmlns="http://www.w3.org/2000/svg" width="70.03" height="64" viewBox="0 0 70.03 64" fill="#00b09f">
  <path id="venus-heart" d="M2307.9,3267.08c-1.02-11.06-8.98-19.07-18.93-19.07a18.919,18.919,0,0,0-15.32,7.92,0.993,0.993,0,0,1-.82.45,0.946,0.946,0,0,1-.82-0.45,18.045,18.045,0,0,0-14.95-7.92c-9.96,0-17.91,8.01-18.93,19.07a19.308,19.308,0,0,0,.6,7.24,30.948,30.948,0,0,0,9.69,15.9l24.38,21.77,24.81-21.77a33.167,33.167,0,0,0,3.45-3.57c0.02-.02.03-0.04,0.05-0.06a30.351,30.351,0,0,0,6.19-12.27A19.308,19.308,0,0,0,2307.9,3267.08Zm-35.08,41.43-22.64-20.2c-0.47-.41-0.91-0.85-1.34-1.29h4.06a1.308,1.308,0,0,0,1.2-.75l5.29-11.44,6.73,16.55a1.3,1.3,0,0,0,1.13.8c0.03,0,.06.01,0.09,0.01a1.316,1.316,0,0,0,1.14-.67l5.46-9.65,2.76,4.57a1.331,1.331,0,0,0,1.35.62,1.3,1.3,0,0,0,1.06-1.01l3.79-17.7,2.82,17.59a1.3,1.3,0,0,0,1.3,1.08h10.17c-0.44.44-.88,0.87-1.34,1.29Zm31.92-34.78a27.663,27.663,0,0,1-5.26,10.71h-11.34l-3.76-23.42a1.3,1.3,0,0,0-1.26-1.09,1.241,1.241,0,0,0-1.32,1.02l-4.56,21.33-2.21-3.66a1.346,1.346,0,0,0-1.15-.63,1.321,1.321,0,0,0-1.13.67l-5.22,9.24-6.85-16.84a1.317,1.317,0,0,0-2.41-.05l-6.21,13.43h-5.51a27.684,27.684,0,0,1-5.27-10.71,17.131,17.131,0,0,1-.56-6.24l0.02-.13c0.88-9.72,7.74-16.77,16.32-16.77a15.442,15.442,0,0,1,12.78,6.79,3.592,3.592,0,0,0,2.96,1.58,3.72,3.72,0,0,0,3-1.54,16.258,16.258,0,0,1,13.17-6.83c8.58,0,15.44,7.05,16.33,16.89A16.633,16.633,0,0,1,2304.74,3273.73Z" transform="translate(-2238 -3248)"/>
</svg>