<svg xmlns="http://www.w3.org/2000/svg" width="79.97" height="80" viewBox="0 0 79.97 80" fill="#00b09f">
  <path id="venus-our-team-icon-4" d="M6342,2043.98a1.335,1.335,0,1,1-1.34,1.34A1.338,1.338,0,0,1,6342,2043.98Zm52.01,26.69a1.33,1.33,0,1,1-1.33,1.33A1.323,1.323,0,0,1,6394.01,2070.67Zm-53.35-33.37a18.665,18.665,0,1,0-13.2-5.46A18.632,18.632,0,0,0,6340.66,2037.3Zm-11.31-29.99a16.009,16.009,0,1,1,0,22.65A15.953,15.953,0,0,1,6329.35,2007.31Zm33.99,35.34a18.675,18.675,0,1,0,18.67,18.68A18.7,18.7,0,0,0,6363.34,2042.65Zm0,34.69a16.01,16.01,0,1,1,16-16.01A16.025,16.025,0,0,1,6363.34,2077.34Zm33.2-66.58a18.67,18.67,0,1,0,0,26.42A18.686,18.686,0,0,0,6396.54,2010.76Zm-24.52,24.53a16.009,16.009,0,1,1,22.64,0A16.03,16.03,0,0,1,6372.02,2035.29Zm-39.84-6.83a1.325,1.325,0,0,0,.94-0.39l16.97-16.98a1.333,1.333,0,0,0-1.88-1.89l-16.98,16.98A1.335,1.335,0,0,0,6332.18,2028.46Zm43.62-13.92a1.333,1.333,0,1,0-1.89,1.88l16.97,16.99a1.348,1.348,0,0,0,.95.39,1.325,1.325,0,0,0,.94-0.39,1.34,1.34,0,0,0,0-1.89Zm-12.46,33.45a1.332,1.332,0,0,0-1.34,1.33v24.01a1.335,1.335,0,1,0,2.67,0v-24.01A1.329,1.329,0,0,0,6363.34,2047.99Zm-28.01,17.34h-4v-4a1.335,1.335,0,1,0-2.67,0v4h-4a1.335,1.335,0,0,0,0,2.67h4v4a1.335,1.335,0,0,0,2.67,0v-4h4A1.335,1.335,0,0,0,6335.33,2065.33Zm63.39-19.16a1.31,1.31,0,0,0-1.88,0l-2.83,2.83-2.83-2.83a1.333,1.333,0,0,0-1.89,1.88l2.83,2.83-2.83,2.83a1.34,1.34,0,0,0,0,1.89,1.34,1.34,0,0,0,1.89,0l2.83-2.83,2.83,2.83a1.328,1.328,0,0,0,1.88,0,1.34,1.34,0,0,0,0-1.89l-2.83-2.83,2.83-2.83A1.328,1.328,0,0,0,6398.72,2046.17Z" transform="translate(-6322.03 -2000)"/>
</svg>