<svg xmlns="http://www.w3.org/2000/svg" width="34.81" height="34.81" viewBox="0 0 34.81 34.81" fill="#fff">
  <path id="venus-gen" d="M1650.13,2011.51c0.03,0,.06.01,0.09,0.01a0.59,0.59,0,0,0,.58-0.49v-0.04a7.126,7.126,0,0,1,.23-1.04,0.579,0.579,0,0,0-.41-0.72,0.587,0.587,0,0,0-.71.4,10.934,10.934,0,0,0-.26,1.22,0.277,0.277,0,0,0-.01.09A0.58,0.58,0,0,0,1650.13,2011.51Zm7.1-6.86a0.375,0.375,0,0,0,.1-0.01c0.36-.06.74-0.11,1.11-0.15a0.577,0.577,0,1,0-.09-1.15,10.933,10.933,0,0,0-1.22.16,0.561,0.561,0,0,0-.48.56,0.34,0.34,0,0,0,.01.1A0.588,0.588,0,0,0,1657.23,2004.65Zm6.88,0.29c0.35,0.08.72,0.16,1.12,0.26a0.757,0.757,0,0,0,.15.01,0.588,0.588,0,0,0,.56-0.43,0.571,0.571,0,0,0-.42-0.7c-0.4-.1-0.79-0.19-1.17-0.28a0.6,0.6,0,0,0-.69.45c0,0.04-.01.08-0.01,0.12A0.579,0.579,0,0,0,1664.11,2004.94Zm-18.66,31.16c-0.35.04-.71,0.07-1.12,0.09a0.584,0.584,0,0,0-.55.59v0.02a0.583,0.583,0,0,0,.58.56h0.03c0.41-.03.81-0.06,1.21-0.11a0.577,0.577,0,0,0,.5-0.65A0.584,0.584,0,0,0,1645.45,2036.1Zm8.18-11.61c-0.08-.39-0.18-0.78-0.29-1.17a0.58,0.58,0,1,0-1.12.3q0.15,0.525.27,1.08a0.037,0.037,0,0,0,.01.03v0.03a0.588,0.588,0,0,0,.56.43,0.57,0.57,0,0,0,.13-0.01,0.589,0.589,0,0,0,.45-0.57,0.2,0.2,0,0,0-.01-0.08h0.01Zm-0.33,5.39a0.572,0.572,0,0,0-.69.43c-0.09.36-.2,0.71-0.32,1.05a0.492,0.492,0,0,0-.04.21,0.586,0.586,0,0,0,.37.54,0.761,0.761,0,0,0,.21.03,0.586,0.586,0,0,0,.54-0.37,8.834,8.834,0,0,0,.37-1.2A0.573,0.573,0,0,0,1653.3,2029.88Zm-2.41-11.39a0.415,0.415,0,0,0,.16-0.03,0.579,0.579,0,0,0,.42-0.56,1,1,0,0,0-.02-0.16c-0.11-.4-0.21-0.76-0.29-1.11a0.579,0.579,0,0,0-.7-0.42,0.57,0.57,0,0,0-.43.69c0.08,0.37.19,0.76,0.3,1.17A0.591,0.591,0,0,0,1650.89,2018.49Zm17.33-12.42a0.581,0.581,0,0,0,.19-1.13c-0.19-.07-0.38-0.13-0.56-0.19h-0.01c-0.01,0-.02-0.01-0.03-0.01a0.579,0.579,0,0,0-.39.02c-0.12-.39-0.25-0.8-0.39-1.2a0.569,0.569,0,0,0-.74-0.36,0.578,0.578,0,0,0-.36.73,30.4,30.4,0,0,1,1.5,6.35l-5.71-5.72c0.04,0,.08.01,0.13,0.01a0.127,0.127,0,0,0,.06.01,0.584,0.584,0,0,0,.58-0.52,0.556,0.556,0,0,0-.13-0.43,0.573,0.573,0,0,0-.38-0.22c-0.42-.04-0.83-0.08-1.21-0.09a0.51,0.51,0,0,0-.27.06,0.577,0.577,0,0,0-.7.09,0.592,0.592,0,0,0,0,.82l7.76,7.76a13.522,13.522,0,0,1-.54,4.38l-11.51-11.51a0.56,0.56,0,0,0,0-.44,0.6,0.6,0,0,0-.76-0.31,9,9,0,0,0-1.12.56,0.568,0.568,0,0,0-.29.5,0.547,0.547,0,0,0,.08.29,0.592,0.592,0,0,0,.5.29,0.611,0.611,0,0,0,.3-0.08c0.1-.06.2-0.11,0.3-0.16l12.03,12.04a6.931,6.931,0,0,1-1.47,2.07,6.529,6.529,0,0,1-.77.62l-12.38-12.4a6.84,6.84,0,0,1,.62-0.8,0.6,0.6,0,0,0-.05-0.83,0.6,0.6,0,0,0-.82.05,8.083,8.083,0,0,0-.76,1.01,0.569,0.569,0,0,0-.08.24c-0.01.01-.03,0.01-0.04,0.02a0.6,0.6,0,0,0,0,.83l12.47,12.48a9.442,9.442,0,0,1-4.15.77l-8.46-8.47a0.567,0.567,0,0,0-.59-0.5,0.587,0.587,0,0,0-.56.6c0.02,0.4.05,0.81,0.1,1.22a0.566,0.566,0,0,0,.57.51h0.07a0.579,0.579,0,0,0,.38-0.21l6.7,6.7a22.678,22.678,0,0,1-5.07-1.39c-0.03-.07-0.05-0.14-0.08-0.2a0.6,0.6,0,0,0-.75-0.34,0.623,0.623,0,0,0-.21.15c-5.89-2.16-10.71-1.83-13.64.96-2.02,1.93-2.98,4.93-2.87,8.66v0.09a26.051,26.051,0,0,0,.82,5.42,0.555,0.555,0,0,0-.22-0.14c-0.18-.06-0.36-0.12-0.55-0.18a0.578,0.578,0,0,0-.73.36,0.584,0.584,0,0,0,.36.74c0.19,0.06.37,0.12,0.56,0.18a0.566,0.566,0,0,0,.18.03,0.576,0.576,0,0,0,.55-0.4v-0.03c0.2,0.71.42,1.44,0.67,2.18a0.58,0.58,0,0,0,.55.39,0.68,0.68,0,0,0,.19-0.03,0.593,0.593,0,0,0,.36-0.74c-0.09-.25-0.16-0.49-0.24-0.74a0.053,0.053,0,0,0,.03.02h0.04c0.38,0.1.77,0.19,1.13,0.27a0.487,0.487,0,0,0,.12.01,0.587,0.587,0,0,0,.57-0.46,0.612,0.612,0,0,0-.45-0.69c-0.38-.08-0.76-0.17-1.12-0.26a0.574,0.574,0,0,0-.6.21,27.645,27.645,0,0,1-.96-4.68l5.14,5.15c-0.06-.01-0.12-0.01-0.18-0.02l-0.01.03v-0.03a0.584,0.584,0,0,0-.65.5,0.22,0.22,0,0,0-.01.08,0.581,0.581,0,0,0,.51.57c0.41,0.06.81,0.1,1.2,0.13h0.04a0.539,0.539,0,0,0,.3-0.1,0.516,0.516,0,0,0,.33.12,0.544,0.544,0,0,0,.41-0.17,0.573,0.573,0,0,0,0-.82l-7.2-7.2a13.4,13.4,0,0,1,.57-4.36l10.98,10.99a0.552,0.552,0,0,0-.16.39,0.615,0.615,0,0,0,.03.18,0.574,0.574,0,0,0,.73.37l0.04-.01c0.39-.14.77-0.29,1.11-0.45a0.579,0.579,0,1,0-.49-1.05c-0.04.02-.09,0.04-0.13,0.06l-11.64-11.65a7.165,7.165,0,0,1,1.49-2.08,6.245,6.245,0,0,1,.75-0.61l12.2,12.21a1.063,1.063,0,0,0-.11.09,9.219,9.219,0,0,1-.74.79,0.528,0.528,0,0,0-.19.43,0.6,0.6,0,0,0,.15.39,0.559,0.559,0,0,0,.43.19,0.584,0.584,0,0,0,.38-0.15l0.06-.05a8.342,8.342,0,0,0,.81-0.87,0.6,0.6,0,0,0,.12-0.36,0.621,0.621,0,0,0,.23-0.14,0.592,0.592,0,0,0,0-.82l-12.31-12.32a9.365,9.365,0,0,1,4.09-.83l8.61,8.62v0.01a0.585,0.585,0,0,0,.58.57h0a0.585,0.585,0,0,0,.58-0.57v-0.26c0-.32-0.01-0.64-0.04-0.97a0.576,0.576,0,0,0-.62-0.54,0.606,0.606,0,0,0-.4.21h0l-6.95-6.95a22.355,22.355,0,0,1,5.36,1.43c0.05,0.13.1,0.25,0.15,0.39a0.575,0.575,0,0,0,.55.38,0.433,0.433,0,0,0,.19-0.04,0.587,0.587,0,0,0,.32-0.28,21.147,21.147,0,0,0,6.26,1.33,0.227,0.227,0,0,0,.04.01,0.035,0.035,0,0,0,.02-0.01,9.309,9.309,0,0,0,6.98-2.3,8.4,8.4,0,0,0,1.89-2.78,0.142,0.142,0,0,0,.02-0.06,13.766,13.766,0,0,0,.91-5.77,0.6,0.6,0,0,0-.01-0.23,25.941,25.941,0,0,0-.94-5.74c0.1,0.03.19,0.07,0.28,0.1A0.68,0.68,0,0,0,1668.22,2006.07Z" transform="translate(-1634 -2003.19)"/>
</svg>