<svg xmlns="http://www.w3.org/2000/svg" width="30" height="20" viewBox="0 0 30 20" fill="#00b09f">
  <path id="venus-mail" d="M1350.76,4690h-27.52a1.255,1.255,0,0,0-1.24,1.28v17.44a1.255,1.255,0,0,0,1.24,1.28h27.52a1.255,1.255,0,0,0,1.24-1.28v-17.44A1.255,1.255,0,0,0,1350.76,4690Zm-27.52,1.01h27.52a0.28,0.28,0,0,1,.26.19l-14.02,9.07-14.02-9.07A0.28,0.28,0,0,1,1323.24,4691.01Zm-0.27,1.34,10.08,6.52-10.08,8.29v-14.81Zm28.06,16.36a0.278,0.278,0,0,1-.27.28h-27.52a0.278,0.278,0,0,1-.27-0.28v-0.27l10.96-8.97,2.81,1.82a0.451,0.451,0,0,0,.52,0l2.81-1.82,10.96,8.97v0.27Zm0-1.55-10.11-8.26,10.11-6.49v14.75Z" transform="translate(-1322 -4690)"/>
</svg>
