<svg xmlns="http://www.w3.org/2000/svg" width="80" height="80" viewBox="0 0 80 80" fill="#00b09f">
  <path id="venus-our-team-icon-3" d="M6101.59,2077.66l-7.69-7.69a1.367,1.367,0,0,0,.26-1.58l-3.48-6.95a6.753,6.753,0,0,0-.59-8.84l-6.44-6.43h0l-34.27-34.28,2.9-2.9a1.372,1.372,0,0,0-1.94-1.94l-2.9,2.9-3.87,3.88-8.61-8.61,2.9-2.91a1.365,1.365,0,1,0-1.93-1.93l-13.55,13.55a1.37,1.37,0,0,0,.96,2.34,1.405,1.405,0,0,0,.97-0.4l2.9-2.91,8.61,8.61-3.87,3.87-2.9,2.91a1.352,1.352,0,0,0,0,1.93,1.323,1.323,0,0,0,.96.4,1.345,1.345,0,0,0,.97-0.4l2.91-2.9,40.71,40.71a6.7,6.7,0,0,0,8.83.6l6.96,3.47a1.31,1.31,0,0,0,.61.15,1.405,1.405,0,0,0,.97-0.4l7.68,7.68A1.368,1.368,0,0,0,6101.59,2077.66Zm-46.31-32.76,3.87-3.87a1.368,1.368,0,0,0-1.93-1.94l-3.88,3.87-1.93-1.93,3.87-3.88a1.368,1.368,0,0,0-1.94-1.93l-3.87,3.87-2.47-2.47,1.93-1.94h0l7.75-7.74h0l1.93-1.94,20.77,20.77h-23.23Zm-6.35-14.09-9.24-9.24,3.88-3.87,9.23,9.24Zm-1.49-16.98,9.24,9.23-1.94,1.94-9.24-9.24Zm-18.27-2.79,3.87-3.87,8.59,8.59-3.87,3.87Zm8.59,12.47,9.24,9.23-1.94,1.94-9.24-9.24Zm38.77,42.65-17.64-17.65h23.23l6.03,6.03a4.038,4.038,0,0,1,0,5.7l-0.05.05h-0.01l-5.8,5.81h-0.01l-0.05.06A4.038,4.038,0,0,1,6076.53,2066.16Zm9.03,0.53,3.13-3.12,2.58,5.16-0.54.54Zm-13.69-14.08a1.37,1.37,0,1,1-1.37,1.37A1.372,1.372,0,0,1,6071.87,2052.61Zm6.85,8.22a1.37,1.37,0,1,1-1.37,1.37A1.372,1.372,0,0,1,6078.72,2060.83Zm2.73-6.85a1.37,1.37,0,1,1-1.36,1.37A1.372,1.372,0,0,1,6081.45,2053.98Z" transform="translate(-6022 -2000)"/>
</svg>