<svg xmlns="http://www.w3.org/2000/svg" width="224" height="224" viewBox="0 0 224 224" fill="#00b09f">
  <path id="venus-medic-case" d="M2392.67,2838h-37.34v26.13H2329.2v37.34h26.13v26.13h37.34v-26.13h26.13v-37.34h-26.13V2838Zm18.66,33.6V2894H2385.2v26.13h-22.4V2894h-26.13v-22.4h26.13v-26.13h22.4v26.13h26.13Zm13.61-104.53a52.132,52.132,0,0,0-101.89,0H2262V2950h224V2767.07h-61.06Zm-50.94-33.6a45.128,45.128,0,0,1,43.32,33.6h-86.64A45.119,45.119,0,0,1,2374,2733.47Zm104.53,209.06H2269.47V2823.07h22.4V2838h37.33v-14.93h89.6V2838h37.33v-14.93h22.4v119.46Zm-156.8-126.93h-22.4v-7.47h22.4v7.47Zm0,7.47v7.46h-22.4v-7.46h22.4Zm126.94-7.47h-22.4v-7.47h22.4v7.47Zm0,7.47v7.46h-22.4v-7.46h22.4Zm7.46-7.47v-14.93H2418.8v14.93h-89.6v-14.93h-37.33v14.93h-22.4v-41.07h209.06v41.07h-22.4Z" transform="translate(-2262 -2726)"/>
</svg>