<svg xmlns="http://www.w3.org/2000/svg" width="36" height="37.19" viewBox="0 0 36 37.19" fill="#fff">
  <path id="venus-pills" d="M1321.93,2003.28a0.62,0.62,0,1,1,0,1.24A0.62,0.62,0,1,1,1321.93,2003.28Zm-8.07,11.78a0.62,0.62,0,1,1-.62.62A0.623,0.623,0,0,1,1313.86,2015.06Zm14.89,6.2v-8.68a4.965,4.965,0,0,0-9.93,0v8.68A4.965,4.965,0,0,0,1328.75,2021.26Zm-4.96-12.4a3.726,3.726,0,0,1,3.72,3.72v3.72h-7.44v-3.72A3.726,3.726,0,0,1,1323.79,2008.86Zm0,16.12a3.726,3.726,0,0,1-3.72-3.72v-3.72h7.44v3.72A3.726,3.726,0,0,1,1323.79,2024.98Zm-16.61-1.58-6.15,6.14a4.964,4.964,0,0,0,7.03,7.01l6.14-6.14A4.96,4.96,0,0,0,1307.18,2023.4Zm0,12.28a3.754,3.754,0,0,1-5.27,0,3.754,3.754,0,0,1,0-5.27l2.63-2.63,5.27,5.26Zm6.14-6.14-2.63,2.63-5.27-5.26,2.64-2.63a3.718,3.718,0,0,1,5.26,0A3.724,3.724,0,0,1,1313.32,2029.54Zm-11.73-14.14a4.96,4.96,0,0,0,7.02-7.01l-6.14-6.14a4.96,4.96,0,0,0-7.02,7.01Zm6.15-.88a3.736,3.736,0,0,1-5.27,0l-2.63-2.63,5.26-5.26,2.64,2.63A3.724,3.724,0,0,1,1307.74,2014.52Zm-11.41-11.4a3.742,3.742,0,0,1,5.26,0l2.63,2.63-5.26,5.27-2.63-2.64A3.718,3.718,0,0,1,1296.33,2003.12Zm3.98,20a0.62,0.62,0,0,0,0-1.24h-1.86v-1.86a0.62,0.62,0,1,0-1.24,0v1.86h-1.86a0.62,0.62,0,0,0,0,1.24h1.86v1.86a0.62,0.62,0,0,0,1.24,0v-1.86h1.86Zm28.19,11.05,1.31-1.31a0.619,0.619,0,0,0-.87-0.88l-1.32,1.32-1.32-1.32a0.619,0.619,0,0,0-.87.88l1.31,1.31-1.31,1.32a0.6,0.6,0,0,0,0,.87,0.593,0.593,0,0,0,.87,0l1.32-1.31,1.32,1.31a0.593,0.593,0,0,0,.87,0,0.6,0.6,0,0,0,0-.87Z" transform="translate(-1294 -2000.81)"/>
</svg>