<svg xmlns="http://www.w3.org/2000/svg" width="30" height="23" viewBox="0 0 30 23" fill="#00b09f">
  <path id="venus-follow" d="M1351.89,4788.18a0.515,0.515,0,0,0-.45-0.18c-0.04.01-.08,0.01-0.11,0.02l-28.96,8.07a0.516,0.516,0,0,0-.37.48,0.539,0.539,0,0,0,.35.5l10.59,3.55-0.95,7.76a0.532,0.532,0,0,0,.25.51,0.553,0.553,0,0,0,.25.07,0.482,0.482,0,0,0,.3-0.11l3.88-3.04,3.4,4.97a0.491,0.491,0,0,0,.41.22h0.03a0.49,0.49,0,0,0,.41-0.28l11.02-21.98A0.539,0.539,0,0,0,1351.89,4788.18Zm-3.47,1.71-15,9.81-9.18-3.07Zm-15.29,17.41,0.69-5.65,2.28,3.32Zm7.28,2.2-6.21-9.09,16.03-10.49Z" transform="translate(-1322 -4788)"/>
</svg>