<svg xmlns="http://www.w3.org/2000/svg" width="41" height="45" viewBox="0 0 41 45" fill="#00b09f">
  <path id="venus-slider-2-txt" d="M1922.28,268.46a11.9,11.9,0,0,0-5.39-6.617c-3.47-2.224-8.38-2.471-12.81-.646l-0.14.058c-0.08.035-.16,0.069-0.24,0.1-0.37.128-.66,0.238-0.89,0.328-0.74.283-.73,0.284-1.95-0.071-3.46-1.016-7.87-2.032-11.25-.838-4.57,1.615-8.63,6.962-7.38,15.266,0.15,0.985.3,1.977,0.44,2.974,1.05,7.171,2.13,14.586,4.92,21.281l0.09,0.226c0.69,1.678,1.85,4.488,3.87,4.488h0.16l0.15-.063c1.84-.779,2.54-2.546,3.04-3.837,0.34-.872.65-1.76,0.94-2.618a24.125,24.125,0,0,1,2.7-6.048c0.96-1.392,3.54-4.422,6.83-2.467,2.21,1.306,2.9,3.94,3.56,6.488,0.19,0.727.39,1.477,0.62,2.179,0.97,2.967,2.22,6.025,4.21,6.228,1.03,0.107,2.01-.6,2.86-2.093a30.048,30.048,0,0,0,2.89-8.713l0.23-1.034c0.25-1.138.53-2.311,0.82-3.511C1922.2,282.766,1924.05,275.11,1922.28,268.46Zm-3.27,20.686c-0.29,1.209-.58,2.391-0.83,3.536l-0.24,1.041a28.688,28.688,0,0,1-2.71,8.266,2.18,2.18,0,0,1-1.31,1.3c-0.37-.039-1.38-0.614-2.85-5.137-0.22-.657-0.4-1.353-0.59-2.091-0.72-2.725-1.53-5.813-4.29-7.453-3.05-1.807-6.48-.681-8.97,2.935a25.745,25.745,0,0,0-2.89,6.433c-0.29.843-.59,1.714-0.92,2.553-0.51,1.306-.99,2.355-2,2.87-0.91-.225-1.88-2.572-2.25-3.484l-0.1-.231c-2.7-6.512-3.77-13.826-4.81-20.9-0.14-1-.29-2-0.44-2.983-0.8-5.337.84-11.591,6.34-13.531a8.97,8.97,0,0,1,2.97-.443,27.057,27.057,0,0,1,7.2,1.282c5.13,2.9,5.13,4.16,5.11,9.352v1.048a0.8,0.8,0,0,0,1.6,0v-1.042c0.02-4.553.01-6.7-3.64-9.3h0c0.22-.084.49-0.188,0.83-0.308,0.12-.04.24-0.09,0.36-0.142l0.11-.049c3.96-1.63,8.3-1.431,11.34.515a10.417,10.417,0,0,1,4.71,5.686C1922.4,275.129,1920.6,282.576,1919.01,289.146Z" transform="translate(-1882 -260)"/>
</svg>